<svg id="logo" viewBox="0 0 47 47" xmlns="http://www.w3.org/2000/svg">
<path d="M22.123 3.95813H24.877V9.27473H22.123V3.95813Z"/>
<path d="M12.1521 7.36743L14.537 5.99048L17.1952 10.5946L14.8104 11.9715L12.1521 7.36743Z"/>
<path d="M5.22224 15.3057L6.5992 12.9208L11.2033 15.579L9.82634 17.9639L5.22224 15.3057Z"/>
<path d="M3.18994 22.8911H8.50654V25.645H3.18994V22.8911Z"/>
<path d="M38.4935 22.8911H43.8101V25.645H38.4935V22.8911Z"/>
<path d="M35.7955 15.5787L40.3996 12.9205L41.7765 15.3054L37.1724 17.9636L35.7955 15.5787Z"/>
<path d="M29.804 10.5956L32.4623 5.99148L34.8472 7.36844L32.1889 11.9725L29.804 10.5956Z"/>
<path d="M34.5381 29.2718C35.2472 27.7133 35.6167 26.0189 35.6167 24.2682C35.6167 17.5869 30.1812 12.1514 23.5 12.1514C16.8188 12.1514 11.3833 17.5869 11.3833 24.2682C11.3833 26.0189 11.7528 27.7133 12.4619 29.2718H0V32.0257H47V29.2718H34.5381ZM14.1372 24.2681C14.1372 19.1053 18.3373 14.9052 23.5 14.9052C28.6627 14.9052 32.8628 19.1053 32.8628 24.2681C32.8628 26.0606 32.3632 27.7766 31.4137 29.2717H15.5863C14.6368 27.7766 14.1372 26.0606 14.1372 24.2681Z"/>
<path d="M5.75244 34.7798H12.025V37.5337H5.75244V34.7798Z"/>
<path d="M14.7791 34.7798H29.4668V37.5337H14.7791V34.7798Z"/>
<path d="M32.2209 34.7798H35.403V37.5337H32.2209V34.7798Z"/>
<path d="M13.433 40.288H16.6151V43.0419H13.433V40.288Z"/>
<path d="M19.3692 40.288H33.1389V43.0419H19.3692V40.288Z"/>
<path d="M35.8929 40.288H40.9112V43.0419H35.8929V40.288Z"/>
</svg>
