<svg id="vk" viewBox="0 0 22 13" xmlns="http://www.w3.org/2000/svg">
<path d="M17.9262 7.7559C17.5867 7.3359 17.6838 7.14904 17.9262 6.77361C17.9306 6.76933 20.7333 2.97561 21.0221 1.68904L21.0238 1.68818C21.1673 1.21933 21.0238 0.874756 20.3299 0.874756H18.0339C17.4493 0.874756 17.1798 1.17047 17.0354 1.50133C17.0354 1.50133 15.8664 4.24247 14.2126 6.01933C13.6788 6.53276 13.4321 6.69733 13.1407 6.69733C12.9972 6.69733 12.7741 6.53276 12.7741 6.0639V1.68818C12.7741 1.1259 12.6104 0.874756 12.1265 0.874756H8.51615C8.14952 0.874756 7.93163 1.13704 7.93163 1.38133C7.93163 1.91447 8.75854 2.03704 8.84429 3.53704V6.79161C8.84429 7.50476 8.71216 7.6359 8.41902 7.6359C7.6385 7.6359 5.74406 4.88361 4.62139 1.73361C4.39476 1.12247 4.17338 0.875613 3.58448 0.875613H1.28753C0.63213 0.875613 0.5 1.17133 0.5 1.50218C0.5 2.08676 1.28053 4.99333 4.12963 8.83333C6.02844 11.4545 8.70253 12.8748 11.1351 12.8748C12.5973 12.8748 12.7758 12.5593 12.7758 12.0168C12.7758 9.51219 12.6437 9.27561 13.3761 9.27561C13.7156 9.27561 14.3001 9.44018 15.6652 10.7045C17.2253 12.2036 17.4817 12.8748 18.355 12.8748H20.6511C21.3056 12.8748 21.6372 12.5593 21.4465 11.937C21.0098 10.6282 18.0592 7.9359 17.9262 7.7559V7.7559Z"/>
</svg>
