<svg id="inst" viewBox="0 0 22 22" xmlns="http://www.w3.org/2000/svg">
<path d="M11.0037 5.60762C8.02612 5.60762 5.61554 8.02083 5.61554 10.9958C5.61554 13.9734 8.02874 16.3839 11.0037 16.3839C13.9813 16.3839 16.3918 13.9707 16.3918 10.9958C16.3918 8.01821 13.9786 5.60762 11.0037 5.60762ZM11.0037 14.4931C9.07085 14.4931 7.50638 12.9277 7.50638 10.9958C7.50638 9.06381 9.07172 7.49847 11.0037 7.49847C12.9357 7.49847 14.501 9.06381 14.501 10.9958C14.5019 12.9277 12.9365 14.4931 11.0037 14.4931Z" />
<path d="M15.3296 0.565962C13.3976 0.475839 8.61236 0.480214 6.67864 0.565962C4.97942 0.645586 3.48057 1.05595 2.27222 2.26431C0.252754 4.28377 0.510874 7.00497 0.510874 10.9958C0.510874 15.0802 0.283378 17.7384 2.27222 19.7273C4.29956 21.7537 7.06013 21.4886 11.0037 21.4886C15.0496 21.4886 16.4461 21.4912 17.8767 20.9374C19.8218 20.1822 21.29 18.4436 21.4335 15.3208C21.5245 13.388 21.5193 8.60357 21.4335 6.66986C21.2603 2.98355 19.2819 0.747959 15.3296 0.565962ZM18.3877 18.3911C17.0638 19.715 15.2272 19.5969 10.9783 19.5969C6.60339 19.5969 4.84905 19.6616 3.56894 18.378C2.0946 16.9107 2.36147 14.5543 2.36147 10.9818C2.36147 6.14749 1.86535 2.66593 6.71714 2.41743C7.83187 2.37806 8.15999 2.36493 10.9661 2.36493L11.0054 2.39118C15.6682 2.39118 19.3265 1.90294 19.5462 6.75385C19.596 7.86071 19.6074 8.1932 19.6074 10.9949C19.6065 15.3191 19.6888 17.0839 18.3877 18.3911Z" />
<path d="M16.6054 6.6541C17.3007 6.6541 17.8645 6.09038 17.8645 5.395C17.8645 4.69962 17.3007 4.1359 16.6054 4.1359C15.91 4.1359 15.3463 4.69962 15.3463 5.395C15.3463 6.09038 15.91 6.6541 16.6054 6.6541Z" />
</svg>
