<svg id="yt" viewBox="0 0 22 15" xmlns="http://www.w3.org/2000/svg">
<path d="M21.0354 2.56298L21.0616 2.7244C20.8079 1.87699 20.1228 1.2231 19.2522 0.985104L19.2338 0.980986C17.5967 0.562633 11.0089 0.562633 11.0089 0.562633C11.0089 0.562633 4.43771 0.554398 2.78398 0.980986C1.89674 1.2231 1.21075 1.87699 0.961377 2.7071L0.957002 2.7244C0.345384 5.7311 0.341009 9.34392 0.984126 12.5631L0.957002 12.4C1.21075 13.2474 1.89587 13.9013 2.76648 14.1393L2.78485 14.1434C4.42021 14.5626 11.0098 14.5626 11.0098 14.5626C11.0098 14.5626 17.58 14.5626 19.2347 14.1434C20.1228 13.9013 20.8088 13.2474 21.0581 12.4173L21.0625 12.4C21.3408 11.0017 21.5 9.39251 21.5 7.74874C21.5 7.68863 21.5 7.62769 21.4991 7.56675C21.5 7.51075 21.5 7.44404 21.5 7.37733C21.5 5.73275 21.3408 4.12357 21.0354 2.56298V2.56298ZM8.90715 10.5693V4.56334L14.3898 7.57086L8.90715 10.5693Z" />
</svg>
